<svg xmlns="http://www.w3.org/2000/svg" xmlns:xlink="http://www.w3.org/1999/xlink" width="1366" zoomAndPan="magnify" viewBox="0 0 1024.5 576" height="768" preserveAspectRatio="xMidYMid meet" version="1.0"><defs><clipPath id="e12bbc8968"><path d="M 0 234 L 1024 234 L 1024 550 L 0 550 Z M 0 234 " clip-rule="nonzero"/></clipPath><clipPath id="e3378d68e4"><path d="M 725.425781 434.644531 C 675.355469 434.644531 576.050781 378.84375 521.125 347.84375 C 509.238281 341.140625 499.023438 335.445312 491.488281 331.421875 C 447.613281 308.296875 419.480469 318.183594 383.644531 330.585938 C 351.15625 341.8125 314.316406 354.546875 255.875 346 C 212.839844 339.800781 197.933594 314.496094 183.699219 290.03125 C 173.316406 272.773438 163.773438 256.351562 144.515625 246.800781 C 93.609375 221.832031 66.816406 246.128906 40.859375 269.589844 C 27.964844 281.320312 15.742188 292.378906 0.667969 297.742188 L 0.167969 296.566406 C 14.902344 291.207031 27.128906 280.144531 39.855469 268.582031 C 66.144531 244.957031 93.441406 220.324219 145.019531 245.625 C 164.609375 255.175781 174.324219 271.933594 184.707031 289.363281 C 198.9375 313.492188 213.675781 338.460938 256.042969 344.660156 C 314.148438 353.207031 350.824219 340.472656 383.140625 329.242188 C 417.804688 317.179688 447.613281 306.957031 491.988281 330.25 C 499.523438 334.101562 509.738281 339.96875 521.628906 346.671875 C 580.40625 379.683594 689.589844 441.011719 734.800781 432.46875 C 744.515625 430.625 754.5625 428.949219 765.113281 427.105469 C 813.003906 418.894531 867.429688 409.675781 904.769531 383.703125 C 908.621094 381.023438 912.304688 378.339844 916.15625 375.660156 C 948.644531 352.871094 981.96875 329.242188 1020.652344 329.242188 C 1021.152344 329.242188 1021.65625 329.242188 1022.324219 329.242188 L 1022.324219 330.585938 C 1021.824219 330.585938 1021.320312 330.585938 1020.820312 330.585938 C 982.472656 330.585938 949.3125 354.042969 917.164062 376.832031 C 913.3125 379.515625 909.625 382.195312 905.777344 384.878906 C 868.097656 411.019531 813.675781 420.234375 765.613281 428.613281 C 755.0625 430.457031 745.015625 432.132812 735.304688 433.976562 C 732.121094 434.308594 728.941406 434.644531 725.425781 434.644531 Z M 706.5 432.632812 C 712.027344 432.46875 717.722656 432.300781 723.582031 432.132812 C 783.03125 430.457031 850.347656 428.445312 903.261719 394.929688 C 911.804688 389.570312 920.511719 383.367188 928.882812 377.503906 C 957.855469 357.226562 987.828125 336.113281 1021.824219 336.113281 C 1021.992188 336.113281 1022.15625 336.113281 1022.324219 336.113281 L 1022.324219 334.773438 C 1022.15625 334.773438 1021.992188 334.773438 1021.824219 334.773438 C 987.328125 334.773438 957.351562 355.886719 928.214844 376.332031 C 919.84375 382.195312 911.132812 388.226562 902.59375 393.757812 C 850.011719 427.105469 782.695312 429.117188 723.582031 430.792969 C 717.722656 430.957031 712.027344 431.125 706.5 431.292969 C 705.496094 431.292969 704.660156 431.292969 703.65625 431.292969 C 645.210938 431.292969 523.304688 372.644531 476.75 350.359375 L 476.246094 350.023438 C 433.210938 329.242188 402.230469 336.113281 366.5625 344.15625 C 334.578125 351.363281 298.574219 359.40625 245.15625 350.359375 C 206.308594 343.824219 191.738281 320.195312 177.503906 297.238281 C 167.121094 280.3125 157.242188 264.394531 138.320312 255.34375 C 89.085938 232.054688 62.796875 257.355469 37.34375 281.988281 C 25.285156 293.71875 13.730469 304.777344 0.167969 310.140625 L 0.667969 311.3125 C 14.570312 305.785156 25.957031 294.722656 38.179688 282.996094 C 63.296875 258.695312 89.253906 233.730469 137.816406 256.851562 C 156.574219 265.566406 166.285156 281.484375 176.667969 298.242188 C 190.902344 321.367188 205.636719 345.332031 245.15625 351.867188 C 298.742188 360.914062 335.082031 352.703125 367.066406 345.664062 C 402.566406 337.621094 433.210938 330.75 475.914062 351.363281 L 476.414062 351.699219 C 522.96875 373.984375 645.042969 432.800781 703.820312 432.800781 C 704.660156 432.800781 705.664062 432.800781 706.5 432.632812 Z M 901.085938 405.152344 C 912.808594 398.28125 924.195312 389.902344 935.414062 382.027344 C 962.710938 362.421875 990.84375 342.148438 1022.660156 341.980469 L 1022.660156 340.636719 C 990.339844 340.804688 962.039062 361.082031 934.578125 380.855469 C 923.527344 388.898438 911.972656 397.109375 900.417969 403.980469 C 830.585938 445.035156 750.710938 437.328125 680.210938 430.457031 L 678.035156 430.289062 C 617.078125 424.589844 506.726562 390.238281 460.339844 369.964844 C 418.644531 351.699219 386.824219 355.050781 350.152344 358.902344 C 318.671875 362.253906 283.003906 365.941406 234.273438 356.390625 C 198.9375 349.351562 184.539062 327.066406 170.472656 305.449219 C 159.921875 289.195312 150.042969 273.777344 131.789062 265.398438 C 84.398438 243.617188 57.941406 270.929688 34.496094 295.226562 C 23.277344 307.125 12.558594 318.183594 0.167969 323.546875 L 0.667969 324.71875 C 13.230469 319.355469 24.113281 308.128906 35.5 296.230469 C 59.78125 271.097656 84.902344 245.125 131.453125 266.574219 C 149.203125 274.785156 159.085938 290.03125 169.632812 306.117188 C 183.699219 327.902344 198.4375 350.523438 234.273438 357.5625 C 283.171875 367.113281 319.003906 363.429688 350.488281 360.078125 C 386.992188 356.222656 418.644531 352.871094 460.003906 370.96875 C 506.390625 391.246094 616.910156 425.597656 678.035156 431.292969 L 680.210938 431.460938 C 707.671875 434.144531 736.644531 436.992188 765.78125 436.992188 C 811.664062 437.160156 858.21875 430.289062 901.085938 405.152344 Z M 898.910156 415.375 C 912.808594 407.667969 926.371094 397.445312 939.433594 387.726562 C 966.730469 367.28125 992.519531 348.011719 1022.996094 347.507812 L 1022.996094 346.167969 C 1009.097656 346.335938 994.863281 350.523438 979.289062 359.070312 C 965.390625 366.613281 951.828125 376.832031 938.765625 386.71875 C 925.703125 396.4375 912.304688 406.492188 898.40625 414.203125 C 817.859375 458.777344 734.96875 446.710938 649.902344 429.28125 C 627.460938 424.589844 601.339844 420.738281 573.875 416.546875 C 525.480469 409.175781 475.410156 401.632812 444.933594 389.738281 C 405.078125 374.152344 372.59375 373.648438 334.914062 373.148438 C 303.765625 372.8125 268.265625 372.308594 223.890625 362.085938 C 192.074219 354.714844 177.839844 333.769531 163.941406 313.492188 C 153.054688 298.074219 143.007812 283.328125 125.59375 275.453125 C 80.210938 255.34375 54.589844 283.832031 31.984375 308.96875 C 21.433594 320.699219 11.386719 331.757812 0.335938 337.121094 L 0.835938 338.292969 C 12.222656 332.929688 22.273438 321.703125 32.988281 309.972656 C 55.429688 285.171875 80.714844 257.019531 125.257812 276.792969 C 142.339844 284.503906 152.386719 299.082031 162.9375 314.664062 C 176.835938 335.109375 191.402344 356.390625 223.554688 363.761719 C 268.097656 373.984375 303.601562 374.488281 334.914062 374.824219 C 372.425781 375.324219 404.742188 375.660156 444.429688 391.246094 C 474.910156 403.140625 525.144531 410.683594 573.707031 418.054688 C 601.171875 422.246094 627.292969 426.097656 649.734375 430.792969 C 691.261719 439.335938 732.289062 446.710938 772.816406 446.710938 C 815.347656 446.375 857.378906 438.332031 898.910156 415.375 Z M 896.566406 425.597656 C 912.472656 417.21875 927.546875 405.488281 942.113281 394.09375 C 968.570312 373.480469 993.523438 353.875 1022.996094 353.375 L 1022.996094 352.035156 C 993.019531 352.703125 967.902344 372.308594 941.277344 393.089844 C 926.707031 404.484375 911.804688 416.210938 895.894531 424.421875 C 799.105469 475.363281 703.320312 453.078125 621.265625 428.277344 C 586.9375 417.886719 549.929688 417.886719 514.09375 417.722656 C 482.109375 417.722656 451.96875 417.554688 428.859375 409.675781 C 391.683594 396.773438 357.519531 392.417969 321.351562 387.726562 C 288.195312 383.535156 253.863281 379.179688 212.671875 367.953125 C 184.539062 360.410156 170.640625 340.804688 157.074219 322.039062 C 146.191406 306.789062 135.808594 292.546875 119.0625 285.171875 C 75.691406 266.574219 50.90625 296.398438 28.96875 322.539062 C 19.257812 334.269531 10.046875 345.164062 0.167969 350.359375 L 0.835938 351.53125 C 10.882812 346.335938 20.09375 335.109375 29.976562 323.378906 C 51.578125 297.574219 76.191406 268.25 118.558594 286.511719 C 135.136719 293.550781 145.351562 307.792969 156.070312 322.875 C 169.800781 341.980469 183.867188 361.585938 212.335938 369.292969 C 253.699219 380.519531 288.027344 384.878906 321.183594 389.066406 C 357.1875 393.589844 391.347656 397.949219 428.523438 410.851562 C 451.800781 418.894531 482.109375 418.894531 514.09375 419.0625 C 549.761719 419.0625 586.769531 419.230469 620.761719 429.449219 C 666.648438 443.359375 716.882812 456.429688 769.128906 456.429688 C 810.660156 456.429688 853.527344 448.21875 896.566406 425.597656 Z M 894.222656 435.816406 C 911.972656 426.9375 928.214844 413.699219 943.957031 400.796875 C 969.746094 379.683594 994.191406 359.910156 1022.996094 358.902344 L 1022.996094 357.5625 C 993.691406 358.570312 969.242188 378.507812 943.117188 399.625 C 927.378906 412.359375 911.132812 425.597656 893.550781 434.476562 C 843.648438 459.613281 792.40625 469.5 736.8125 464.808594 C 684.0625 460.285156 634.328125 443.191406 592.796875 427.105469 C 554.28125 412.191406 517.273438 419.5625 484.621094 425.933594 C 459 430.957031 434.71875 435.816406 413.117188 429.28125 C 383.308594 420.402344 354.003906 413.363281 323.023438 405.992188 C 284.84375 396.941406 245.492188 387.558594 201.785156 373.648438 C 177.335938 365.941406 163.605469 347.84375 150.542969 330.417969 C 139.324219 315.671875 128.773438 301.761719 112.53125 295.058594 C 71.167969 278.136719 46.050781 310.476562 25.957031 336.449219 C 17.082031 347.84375 8.707031 358.734375 0.167969 363.761719 L 0.835938 364.769531 C 9.546875 359.574219 17.917969 348.683594 26.960938 337.121094 C 47.894531 310.308594 71.503906 279.644531 112.195312 296.398438 C 128.105469 302.933594 138.65625 316.84375 149.707031 331.421875 C 163.101562 349.015625 176.835938 367.28125 201.617188 375.15625 C 245.324219 389.066406 284.675781 398.449219 322.855469 407.5 C 353.835938 414.871094 383.140625 421.742188 412.949219 430.792969 C 434.71875 437.328125 459.167969 432.46875 485.125 427.441406 C 517.609375 421.070312 554.449219 413.699219 592.628906 428.613281 C 634.328125 444.699219 684.0625 461.960938 736.980469 466.484375 C 746.019531 467.320312 754.898438 467.65625 763.605469 467.65625 C 809.152344 467.320312 852.1875 456.933594 894.222656 435.816406 Z M 892.042969 446.039062 C 911.300781 436.824219 928.71875 421.910156 945.460938 407.667969 C 970.917969 386.050781 994.863281 365.773438 1023.332031 364.601562 L 1023.332031 363.429688 C 994.527344 364.601562 970.246094 385.042969 944.792969 406.828125 C 928.046875 421.070312 910.632812 435.816406 891.542969 445.035156 C 768.292969 504.523438 661.625 471.175781 564.664062 426.265625 C 523.472656 407.164062 490.3125 422.246094 461.175781 435.484375 C 439.40625 445.371094 418.976562 454.753906 397.710938 449.390625 C 334.578125 433.472656 261.066406 406.160156 191.402344 379.683594 C 170.640625 371.804688 157.410156 355.382812 144.683594 339.464844 C 133.128906 324.886719 122.078125 311.3125 106.335938 305.113281 C 66.648438 289.695312 42.535156 323.546875 23.109375 350.859375 C 14.902344 362.421875 7.703125 372.476562 0.503906 377.335938 L 1.171875 378.339844 C 8.539062 373.316406 15.742188 363.261719 24.113281 351.53125 C 43.371094 324.71875 67.148438 291.207031 106 306.285156 C 121.574219 312.320312 132.292969 325.890625 143.84375 340.304688 C 156.738281 356.390625 169.96875 372.980469 191.070312 381.023438 C 260.898438 407.5 334.246094 434.8125 397.542969 450.730469 C 419.144531 456.261719 439.910156 446.710938 461.847656 436.824219 C 490.816406 423.585938 523.636719 408.671875 564.332031 427.605469 C 624.113281 455.257812 687.410156 478.546875 756.238281 478.546875 C 798.9375 478.214844 844.320312 469.164062 892.042969 446.039062 Z M 889.53125 456.261719 C 910.296875 446.710938 928.550781 430.457031 946.46875 414.703125 C 971.585938 392.585938 995.363281 371.640625 1023.332031 370.296875 L 1023.332031 369.125 C 994.863281 370.464844 970.917969 391.578125 945.628906 413.867188 C 927.878906 429.449219 909.628906 445.703125 889.03125 455.257812 C 750.207031 519.769531 637.175781 479.050781 535.863281 425.261719 C 492.492188 402.136719 464.023438 424.925781 438.90625 445.035156 C 420.484375 459.78125 403.070312 473.6875 381.632812 469.332031 C 335.417969 459.949219 275.46875 431.125 222.550781 405.65625 C 207.648438 398.449219 193.582031 391.746094 180.351562 385.714844 C 163.4375 378.007812 151.046875 363.261719 138.988281 349.015625 C 126.765625 334.269531 115.042969 320.699219 99.636719 315 C 61.625 301.257812 37.34375 338.460938 19.59375 365.605469 C 12.390625 376.667969 6.195312 386.21875 0.335938 390.742188 L 1.171875 391.746094 C 7.199219 387.054688 13.5625 377.503906 20.765625 366.277344 C 39.351562 337.957031 62.292969 302.769531 99.300781 316.171875 C 114.539062 321.703125 125.929688 335.277344 138.152344 349.6875 C 150.210938 363.929688 162.769531 378.84375 180.015625 386.71875 C 193.246094 392.753906 207.3125 399.625 222.214844 406.660156 C 275.300781 432.132812 335.417969 460.953125 381.632812 470.335938 C 403.570312 474.863281 421.320312 460.617188 439.910156 445.703125 C 465.867188 424.925781 492.828125 403.476562 535.527344 426.097656 C 600 460.285156 669.324219 489.273438 746.859375 489.273438 C 791.402344 489.441406 838.625 479.890625 889.53125 456.261719 Z M 887.355469 466.484375 C 909.460938 456.597656 928.71875 439.003906 947.304688 421.910156 C 972.257812 399.121094 995.699219 377.671875 1023.496094 376.164062 L 1023.496094 374.992188 C 995.199219 376.5 971.585938 398.28125 946.46875 421.070312 C 927.878906 437.996094 908.789062 455.589844 886.851562 465.476562 C 817.691406 496.480469 751.546875 506.199219 684.230469 495.136719 C 629.804688 486.089844 575.214844 464.304688 507.730469 424.257812 C 462.347656 397.445312 439.742188 426.265625 417.972656 454.082031 C 402.566406 473.855469 388 492.457031 366.0625 489.105469 C 322.1875 482.402344 257.214844 443.527344 205.136719 412.359375 C 192.242188 404.648438 180.183594 397.445312 169.632812 391.414062 C 156.574219 384.039062 145.351562 371.304688 134.46875 359.070312 C 121.070312 344.15625 108.679688 330.082031 93.105469 324.886719 C 56.601562 312.652344 33.15625 352.199219 15.910156 381.023438 C 9.878906 391.246094 4.6875 399.957031 0.167969 404.148438 L 1.003906 404.984375 C 5.695312 400.628906 10.882812 391.746094 17.082031 381.527344 C 33.992188 353.039062 57.269531 314.164062 92.769531 325.890625 C 107.84375 330.917969 120.402344 344.996094 133.464844 359.742188 C 144.347656 371.972656 155.734375 384.710938 168.964844 392.25 C 179.515625 398.28125 191.570312 405.488281 204.464844 413.195312 C 256.710938 444.53125 321.683594 483.410156 365.894531 490.109375 C 388.332031 493.460938 403.238281 474.527344 418.976562 454.585938 C 440.414062 427.105469 462.683594 398.785156 507.058594 425.09375 C 574.878906 465.144531 629.472656 487.09375 684.0625 496.144531 C 701.980469 499.160156 719.898438 500.667969 737.816406 500.667969 C 787.214844 500.667969 836.617188 489.273438 887.355469 466.484375 Z M 885.179688 476.707031 C 908.621094 466.484375 928.71875 447.546875 948.140625 429.117188 C 972.757812 405.65625 996.203125 383.535156 1023.832031 381.859375 L 1023.832031 380.6875 C 995.699219 382.53125 972.257812 404.816406 947.304688 428.277344 C 928.046875 446.542969 907.953125 465.644531 884.675781 475.699219 C 809.152344 508.542969 737.648438 518.261719 666.480469 505.023438 C 608.539062 494.300781 549.089844 468.328125 479.261719 423.25 C 463.519531 413.027344 450.292969 409.675781 438.570312 412.859375 C 419.3125 418.054688 407.925781 440.679688 397.039062 462.628906 C 384.480469 487.597656 372.757812 511.226562 350.320312 509.046875 C 304.605469 504.691406 222.886719 444.53125 173.988281 408.503906 C 168.460938 404.484375 163.269531 400.628906 158.75 397.445312 C 149.707031 390.910156 140.832031 381.359375 131.453125 371.136719 C 117.21875 355.71875 102.484375 339.800781 86.574219 334.941406 C 51.074219 324.214844 27.628906 368.457031 12.058594 397.613281 C 7.367188 406.324219 3.347656 413.867188 0.167969 417.722656 L 1.171875 418.558594 C 4.519531 414.703125 8.539062 406.996094 13.230469 398.28125 C 28.636719 369.460938 51.910156 325.890625 86.40625 336.113281 C 101.980469 340.804688 116.71875 356.726562 130.785156 371.972656 C 140.160156 382.195312 149.035156 391.746094 158.246094 398.28125 C 162.769531 401.632812 167.960938 405.320312 173.484375 409.34375 C 222.382812 445.371094 304.4375 505.695312 350.320312 510.050781 C 351.324219 510.21875 352.328125 510.21875 353.335938 510.21875 C 374.601562 510.21875 386.15625 487.261719 398.214844 462.964844 C 409.097656 441.347656 420.316406 418.894531 439.074219 413.867188 C 450.292969 410.851562 463.355469 414.203125 478.761719 424.089844 C 548.757812 469.332031 608.371094 495.304688 666.480469 506.03125 C 687.078125 509.882812 707.671875 511.726562 728.4375 511.726562 C 779.34375 511.894531 831.257812 500.164062 885.179688 476.707031 Z M 377.113281 470.671875 C 385.152344 444.867188 393.523438 418.054688 411.273438 412.023438 C 421.65625 408.503906 434.214844 412.023438 449.957031 422.914062 C 523.136719 473.855469 586.265625 503.347656 648.394531 515.917969 C 723.75 531 800.445312 521.613281 882.832031 486.757812 C 907.617188 476.371094 928.382812 455.925781 948.476562 436.152344 C 973.09375 412.023438 996.203125 389.234375 1023.832031 387.222656 L 1023.664062 386.050781 C 995.699219 388.0625 972.257812 411.019531 947.640625 435.316406 C 927.542969 455.089844 906.78125 475.363281 882.332031 485.753906 C 800.277344 520.441406 723.75 529.992188 648.5625 514.742188 C 586.601562 502.34375 523.636719 472.851562 450.628906 421.910156 C 434.550781 410.683594 421.65625 407.164062 410.941406 410.851562 C 392.6875 417.050781 384.148438 444.195312 375.941406 470.335938 C 366.5625 500.332031 357.6875 528.652344 335.417969 528.652344 C 335.082031 528.652344 334.746094 528.652344 334.410156 528.652344 C 314.316406 527.980469 280.492188 510.386719 236.617188 477.878906 C 202.957031 452.910156 167.792969 422.414062 147.863281 402.972656 C 143.511719 398.785156 138.65625 393.421875 133.464844 387.726562 C 117.722656 370.632812 97.960938 349.183594 80.042969 344.492188 C 45.214844 335.613281 20.933594 387.726562 7.703125 415.878906 C 4.519531 422.746094 2.007812 428.109375 0 431.125 L 1.003906 431.796875 C 3.015625 428.613281 5.527344 423.25 8.707031 416.378906 C 21.601562 388.730469 45.714844 337.121094 79.710938 346 C 97.292969 350.523438 116.886719 371.804688 132.457031 388.898438 C 137.648438 394.597656 142.507812 399.957031 147.027344 404.148438 C 180.183594 436.320312 285.847656 528.316406 334.246094 530.160156 C 334.578125 530.160156 334.914062 530.160156 335.25 530.160156 C 358.527344 529.992188 368.070312 499.832031 377.113281 470.671875 Z M 318.839844 549.765625 C 343.453125 549.097656 349.984375 512.734375 356.179688 477.710938 C 361.539062 447.714844 367.066406 416.714844 383.980469 410.011719 C 393.523438 406.324219 405.75 410.179688 421.65625 421.910156 C 498.015625 478.546875 564.496094 511.558594 630.644531 525.804688 C 710.019531 542.894531 791.738281 533.511719 880.65625 496.980469 C 906.613281 486.257812 928.214844 464.472656 948.980469 443.359375 C 973.429688 418.558594 996.539062 395.097656 1024 392.921875 L 1024 391.914062 C 996.035156 394.09375 972.757812 417.722656 948.140625 442.6875 C 927.378906 463.636719 905.941406 485.417969 880.15625 495.976562 C 791.570312 532.339844 710.019531 541.722656 630.8125 524.796875 C 564.832031 510.554688 498.519531 477.542969 422.328125 421.070312 C 406.082031 409.007812 393.355469 405.152344 383.476562 409.007812 C 365.894531 416.046875 360.535156 445.871094 355.007812 477.542969 C 348.8125 512.0625 342.449219 547.753906 318.839844 548.59375 C 293.550781 549.429688 247 513.90625 221.546875 492.792969 C 182.527344 460.449219 149.035156 425.429688 137.316406 409.007812 C 126.09375 393.253906 95.785156 359.40625 73.679688 354.546875 C 37.84375 346.839844 12.222656 413.195312 2.679688 437.996094 C 1.675781 440.679688 0.835938 443.023438 0.167969 444.53125 L 1.339844 445.035156 C 2.007812 443.359375 2.847656 441.179688 3.851562 438.5 C 13.398438 413.867188 38.683594 348.347656 73.347656 355.886719 C 93.273438 360.078125 122.078125 389.902344 136.144531 409.84375 C 160.925781 444.53125 272.789062 549.933594 317.832031 549.933594 C 318.167969 549.765625 318.503906 549.765625 318.839844 549.765625 Z M 318.839844 549.765625 " clip-rule="nonzero"/></clipPath><linearGradient x1="0.5" gradientTransform="matrix(1.674571, 0, 0, 1.675702, -0.837286, 195.857849)" y1="117.318001" x2="611.999988" gradientUnits="userSpaceOnUse" y2="117.318001" id="b1c3f8692c"><stop stop-opacity="1" stop-color="rgb(0%, 59.21936%, 93.328857%)" offset="0"/><stop stop-opacity="1" stop-color="rgb(0.689697%, 59.210205%, 93.377686%)" offset="0.00390625"/><stop stop-opacity="1" stop-color="rgb(1.379395%, 59.202576%, 93.426514%)" offset="0.0078125"/><stop stop-opacity="1" stop-color="rgb(2.069092%, 59.19342%, 93.473816%)" offset="0.0117188"/><stop stop-opacity="1" stop-color="rgb(2.760315%, 59.184265%, 93.522644%)" offset="0.015625"/><stop stop-opacity="1" stop-color="rgb(3.450012%, 59.17511%, 93.571472%)" offset="0.0195312"/><stop stop-opacity="1" stop-color="rgb(4.141235%, 59.16748%, 93.6203%)" offset="0.0234375"/><stop stop-opacity="1" stop-color="rgb(4.830933%, 59.158325%, 93.669128%)" offset="0.0273438"/><stop stop-opacity="1" stop-color="rgb(5.52063%, 59.150696%, 93.717957%)" offset="0.03125"/><stop stop-opacity="1" stop-color="rgb(6.210327%, 59.141541%, 93.765259%)" offset="0.0351562"/><stop stop-opacity="1" stop-color="rgb(6.90155%, 59.133911%, 93.814087%)" offset="0.0390625"/><stop stop-opacity="1" stop-color="rgb(7.591248%, 59.124756%, 93.862915%)" offset="0.0429688"/><stop stop-opacity="1" stop-color="rgb(8.282471%, 59.115601%, 93.911743%)" offset="0.046875"/><stop stop-opacity="1" stop-color="rgb(8.972168%, 59.106445%, 93.959045%)" offset="0.0507812"/><stop stop-opacity="1" stop-color="rgb(9.661865%, 59.098816%, 94.007874%)" offset="0.0546875"/><stop stop-opacity="1" stop-color="rgb(10.351562%, 59.089661%, 94.056702%)" offset="0.0585937"/><stop stop-opacity="1" stop-color="rgb(11.042786%, 59.082031%, 94.10553%)" offset="0.0625"/><stop stop-opacity="1" stop-color="rgb(11.732483%, 59.072876%, 94.154358%)" offset="0.0664062"/><stop stop-opacity="1" stop-color="rgb(12.423706%, 59.065247%, 94.203186%)" offset="0.0703125"/><stop stop-opacity="1" stop-color="rgb(13.113403%, 59.056091%, 94.250488%)" offset="0.0742187"/><stop stop-opacity="1" stop-color="rgb(13.804626%, 59.046936%, 94.299316%)" offset="0.078125"/><stop stop-opacity="1" stop-color="rgb(14.494324%, 59.037781%, 94.348145%)" offset="0.0820312"/><stop stop-opacity="1" stop-color="rgb(15.184021%, 59.030151%, 94.396973%)" offset="0.0859375"/><stop stop-opacity="1" stop-color="rgb(15.873718%, 59.020996%, 94.444275%)" offset="0.0898437"/><stop stop-opacity="1" stop-color="rgb(16.564941%, 59.013367%, 94.493103%)" offset="0.09375"/><stop stop-opacity="1" stop-color="rgb(17.254639%, 59.004211%, 94.541931%)" offset="0.0976562"/><stop stop-opacity="1" stop-color="rgb(17.945862%, 58.996582%, 94.590759%)" offset="0.101562"/><stop stop-opacity="1" stop-color="rgb(18.635559%, 58.987427%, 94.638062%)" offset="0.105469"/><stop stop-opacity="1" stop-color="rgb(19.325256%, 58.978271%, 94.68689%)" offset="0.109375"/><stop stop-opacity="1" stop-color="rgb(20.014954%, 58.969116%, 94.735718%)" offset="0.113281"/><stop stop-opacity="1" stop-color="rgb(20.706177%, 58.961487%, 94.784546%)" offset="0.117187"/><stop stop-opacity="1" stop-color="rgb(21.395874%, 58.952332%, 94.833374%)" offset="0.121094"/><stop stop-opacity="1" stop-color="rgb(22.087097%, 58.944702%, 94.882202%)" offset="0.125"/><stop stop-opacity="1" stop-color="rgb(22.776794%, 58.935547%, 94.929504%)" offset="0.128906"/><stop stop-opacity="1" stop-color="rgb(23.468018%, 58.927917%, 94.978333%)" offset="0.132812"/><stop stop-opacity="1" stop-color="rgb(24.157715%, 58.918762%, 95.027161%)" offset="0.136719"/><stop stop-opacity="1" stop-color="rgb(24.847412%, 58.909607%, 95.075989%)" offset="0.140625"/><stop stop-opacity="1" stop-color="rgb(25.537109%, 58.900452%, 95.123291%)" offset="0.144531"/><stop stop-opacity="1" stop-color="rgb(26.228333%, 58.892822%, 95.172119%)" offset="0.148437"/><stop stop-opacity="1" stop-color="rgb(26.91803%, 58.883667%, 95.220947%)" offset="0.152344"/><stop stop-opacity="1" stop-color="rgb(27.609253%, 58.876038%, 95.269775%)" offset="0.15625"/><stop stop-opacity="1" stop-color="rgb(28.29895%, 58.866882%, 95.318604%)" offset="0.160156"/><stop stop-opacity="1" stop-color="rgb(28.988647%, 58.859253%, 95.367432%)" offset="0.164062"/><stop stop-opacity="1" stop-color="rgb(29.678345%, 58.850098%, 95.414734%)" offset="0.167969"/><stop stop-opacity="1" stop-color="rgb(30.369568%, 58.840942%, 95.463562%)" offset="0.171875"/><stop stop-opacity="1" stop-color="rgb(31.059265%, 58.831787%, 95.51239%)" offset="0.175781"/><stop stop-opacity="1" stop-color="rgb(31.750488%, 58.824158%, 95.561218%)" offset="0.179687"/><stop stop-opacity="1" stop-color="rgb(32.440186%, 58.815002%, 95.608521%)" offset="0.183594"/><stop stop-opacity="1" stop-color="rgb(33.131409%, 58.807373%, 95.657349%)" offset="0.1875"/><stop stop-opacity="1" stop-color="rgb(33.821106%, 58.798218%, 95.706177%)" offset="0.191406"/><stop stop-opacity="1" stop-color="rgb(34.510803%, 58.790588%, 95.755005%)" offset="0.195312"/><stop stop-opacity="1" stop-color="rgb(35.2005%, 58.781433%, 95.803833%)" offset="0.199219"/><stop stop-opacity="1" stop-color="rgb(35.891724%, 58.772278%, 95.852661%)" offset="0.203125"/><stop stop-opacity="1" stop-color="rgb(36.581421%, 58.763123%, 95.899963%)" offset="0.207031"/><stop stop-opacity="1" stop-color="rgb(37.272644%, 58.755493%, 95.948792%)" offset="0.210937"/><stop stop-opacity="1" stop-color="rgb(37.962341%, 58.746338%, 95.99762%)" offset="0.214844"/><stop stop-opacity="1" stop-color="rgb(38.652039%, 58.738708%, 96.046448%)" offset="0.21875"/><stop stop-opacity="1" stop-color="rgb(39.341736%, 58.729553%, 96.09375%)" offset="0.222656"/><stop stop-opacity="1" stop-color="rgb(40.032959%, 58.721924%, 96.142578%)" offset="0.226562"/><stop stop-opacity="1" stop-color="rgb(40.722656%, 58.712769%, 96.191406%)" offset="0.230469"/><stop stop-opacity="1" stop-color="rgb(41.413879%, 58.703613%, 96.240234%)" offset="0.234375"/><stop stop-opacity="1" stop-color="rgb(42.103577%, 58.694458%, 96.287537%)" offset="0.238281"/><stop stop-opacity="1" stop-color="rgb(42.7948%, 58.686829%, 96.336365%)" offset="0.242187"/><stop stop-opacity="1" stop-color="rgb(43.484497%, 58.677673%, 96.385193%)" offset="0.246094"/><stop stop-opacity="1" stop-color="rgb(44.174194%, 58.670044%, 96.434021%)" offset="0.25"/><stop stop-opacity="1" stop-color="rgb(44.863892%, 58.660889%, 96.482849%)" offset="0.253906"/><stop stop-opacity="1" stop-color="rgb(45.555115%, 58.653259%, 96.531677%)" offset="0.257813"/><stop stop-opacity="1" stop-color="rgb(46.244812%, 58.644104%, 96.578979%)" offset="0.261719"/><stop stop-opacity="1" stop-color="rgb(46.936035%, 58.634949%, 96.627808%)" offset="0.265625"/><stop stop-opacity="1" stop-color="rgb(47.625732%, 58.625793%, 96.676636%)" offset="0.269531"/><stop stop-opacity="1" stop-color="rgb(48.31543%, 58.618164%, 96.725464%)" offset="0.273438"/><stop stop-opacity="1" stop-color="rgb(49.005127%, 58.609009%, 96.772766%)" offset="0.277344"/><stop stop-opacity="1" stop-color="rgb(49.69635%, 58.601379%, 96.821594%)" offset="0.28125"/><stop stop-opacity="1" stop-color="rgb(50.386047%, 58.592224%, 96.870422%)" offset="0.285156"/><stop stop-opacity="1" stop-color="rgb(51.077271%, 58.584595%, 96.91925%)" offset="0.289062"/><stop stop-opacity="1" stop-color="rgb(51.766968%, 58.575439%, 96.968079%)" offset="0.292969"/><stop stop-opacity="1" stop-color="rgb(52.458191%, 58.566284%, 97.016907%)" offset="0.296875"/><stop stop-opacity="1" stop-color="rgb(53.147888%, 58.557129%, 97.064209%)" offset="0.300781"/><stop stop-opacity="1" stop-color="rgb(53.837585%, 58.5495%, 97.113037%)" offset="0.304688"/><stop stop-opacity="1" stop-color="rgb(54.527283%, 58.540344%, 97.161865%)" offset="0.308594"/><stop stop-opacity="1" stop-color="rgb(55.218506%, 58.532715%, 97.210693%)" offset="0.3125"/><stop stop-opacity="1" stop-color="rgb(55.908203%, 58.52356%, 97.257996%)" offset="0.316406"/><stop stop-opacity="1" stop-color="rgb(56.599426%, 58.51593%, 97.306824%)" offset="0.320312"/><stop stop-opacity="1" stop-color="rgb(57.289124%, 58.506775%, 97.355652%)" offset="0.324219"/><stop stop-opacity="1" stop-color="rgb(57.978821%, 58.49762%, 97.40448%)" offset="0.328125"/><stop stop-opacity="1" stop-color="rgb(58.668518%, 58.488464%, 97.453308%)" offset="0.332031"/><stop stop-opacity="1" stop-color="rgb(59.359741%, 58.480835%, 97.502136%)" offset="0.335938"/><stop stop-opacity="1" stop-color="rgb(60.049438%, 58.47168%, 97.549438%)" offset="0.339844"/><stop stop-opacity="1" stop-color="rgb(60.740662%, 58.46405%, 97.598267%)" offset="0.34375"/><stop stop-opacity="1" stop-color="rgb(61.430359%, 58.454895%, 97.647095%)" offset="0.347656"/><stop stop-opacity="1" stop-color="rgb(62.121582%, 58.447266%, 97.695923%)" offset="0.351562"/><stop stop-opacity="1" stop-color="rgb(62.811279%, 58.43811%, 97.743225%)" offset="0.355469"/><stop stop-opacity="1" stop-color="rgb(63.500977%, 58.428955%, 97.792053%)" offset="0.359375"/><stop stop-opacity="1" stop-color="rgb(64.190674%, 58.4198%, 97.840881%)" offset="0.363281"/><stop stop-opacity="1" stop-color="rgb(64.881897%, 58.41217%, 97.889709%)" offset="0.367188"/><stop stop-opacity="1" stop-color="rgb(65.571594%, 58.403015%, 97.937012%)" offset="0.371094"/><stop stop-opacity="1" stop-color="rgb(66.262817%, 58.395386%, 97.98584%)" offset="0.375"/><stop stop-opacity="1" stop-color="rgb(66.952515%, 58.38623%, 98.034668%)" offset="0.378906"/><stop stop-opacity="1" stop-color="rgb(67.642212%, 58.378601%, 98.083496%)" offset="0.382812"/><stop stop-opacity="1" stop-color="rgb(68.331909%, 58.369446%, 98.132324%)" offset="0.386719"/><stop stop-opacity="1" stop-color="rgb(69.023132%, 58.360291%, 98.181152%)" offset="0.390625"/><stop stop-opacity="1" stop-color="rgb(69.71283%, 58.351135%, 98.228455%)" offset="0.394531"/><stop stop-opacity="1" stop-color="rgb(70.404053%, 58.343506%, 98.277283%)" offset="0.398438"/><stop stop-opacity="1" stop-color="rgb(71.09375%, 58.334351%, 98.326111%)" offset="0.402344"/><stop stop-opacity="1" stop-color="rgb(71.784973%, 58.326721%, 98.374939%)" offset="0.40625"/><stop stop-opacity="1" stop-color="rgb(72.47467%, 58.317566%, 98.422241%)" offset="0.410156"/><stop stop-opacity="1" stop-color="rgb(73.164368%, 58.309937%, 98.471069%)" offset="0.414062"/><stop stop-opacity="1" stop-color="rgb(73.854065%, 58.300781%, 98.519897%)" offset="0.417969"/><stop stop-opacity="1" stop-color="rgb(74.545288%, 58.291626%, 98.568726%)" offset="0.421875"/><stop stop-opacity="1" stop-color="rgb(75.234985%, 58.282471%, 98.617554%)" offset="0.425781"/><stop stop-opacity="1" stop-color="rgb(75.926208%, 58.274841%, 98.666382%)" offset="0.429688"/><stop stop-opacity="1" stop-color="rgb(76.615906%, 58.265686%, 98.713684%)" offset="0.433594"/><stop stop-opacity="1" stop-color="rgb(77.305603%, 58.258057%, 98.762512%)" offset="0.4375"/><stop stop-opacity="1" stop-color="rgb(77.9953%, 58.248901%, 98.81134%)" offset="0.441406"/><stop stop-opacity="1" stop-color="rgb(78.686523%, 58.241272%, 98.860168%)" offset="0.445312"/><stop stop-opacity="1" stop-color="rgb(79.376221%, 58.232117%, 98.907471%)" offset="0.449219"/><stop stop-opacity="1" stop-color="rgb(80.067444%, 58.222961%, 98.956299%)" offset="0.453125"/><stop stop-opacity="1" stop-color="rgb(80.757141%, 58.213806%, 99.005127%)" offset="0.457031"/><stop stop-opacity="1" stop-color="rgb(81.448364%, 58.206177%, 99.053955%)" offset="0.460938"/><stop stop-opacity="1" stop-color="rgb(82.138062%, 58.197021%, 99.101257%)" offset="0.464844"/><stop stop-opacity="1" stop-color="rgb(82.827759%, 58.189392%, 99.150085%)" offset="0.46875"/><stop stop-opacity="1" stop-color="rgb(83.517456%, 58.180237%, 99.198914%)" offset="0.472656"/><stop stop-opacity="1" stop-color="rgb(84.208679%, 58.172607%, 99.247742%)" offset="0.476562"/><stop stop-opacity="1" stop-color="rgb(84.898376%, 58.163452%, 99.29657%)" offset="0.480469"/><stop stop-opacity="1" stop-color="rgb(85.5896%, 58.154297%, 99.345398%)" offset="0.484375"/><stop stop-opacity="1" stop-color="rgb(86.279297%, 58.145142%, 99.3927%)" offset="0.488281"/><stop stop-opacity="1" stop-color="rgb(86.968994%, 58.137512%, 99.441528%)" offset="0.492188"/><stop stop-opacity="1" stop-color="rgb(87.658691%, 58.128357%, 99.490356%)" offset="0.496094"/><stop stop-opacity="1" stop-color="rgb(88.349915%, 58.120728%, 99.539185%)" offset="0.5"/><stop stop-opacity="1" stop-color="rgb(89.039612%, 58.111572%, 99.586487%)" offset="0.503906"/><stop stop-opacity="1" stop-color="rgb(89.730835%, 58.103943%, 99.635315%)" offset="0.507812"/><stop stop-opacity="1" stop-color="rgb(90.420532%, 58.094788%, 99.684143%)" offset="0.511719"/><stop stop-opacity="1" stop-color="rgb(91.111755%, 58.085632%, 99.732971%)" offset="0.515625"/><stop stop-opacity="1" stop-color="rgb(91.801453%, 58.076477%, 99.781799%)" offset="0.519531"/><stop stop-opacity="1" stop-color="rgb(92.49115%, 58.068848%, 99.830627%)" offset="0.523438"/><stop stop-opacity="1" stop-color="rgb(93.180847%, 58.059692%, 99.87793%)" offset="0.527344"/><stop stop-opacity="1" stop-color="rgb(93.87207%, 58.052063%, 99.926758%)" offset="0.53125"/><stop stop-opacity="1" stop-color="rgb(94.226074%, 57.998657%, 99.916077%)" offset="0.535156"/><stop stop-opacity="1" stop-color="rgb(94.581604%, 57.945251%, 99.906921%)" offset="0.539062"/><stop stop-opacity="1" stop-color="rgb(93.960571%, 57.762146%, 99.726868%)" offset="0.542969"/><stop stop-opacity="1" stop-color="rgb(93.341064%, 57.579041%, 99.546814%)" offset="0.546875"/><stop stop-opacity="1" stop-color="rgb(92.720032%, 57.394409%, 99.36676%)" offset="0.550781"/><stop stop-opacity="1" stop-color="rgb(92.100525%, 57.211304%, 99.186707%)" offset="0.554687"/><stop stop-opacity="1" stop-color="rgb(91.479492%, 57.028198%, 99.006653%)" offset="0.558594"/><stop stop-opacity="1" stop-color="rgb(90.859985%, 56.845093%, 98.826599%)" offset="0.5625"/><stop stop-opacity="1" stop-color="rgb(90.238953%, 56.660461%, 98.646545%)" offset="0.566406"/><stop stop-opacity="1" stop-color="rgb(89.619446%, 56.477356%, 98.466492%)" offset="0.570312"/><stop stop-opacity="1" stop-color="rgb(88.998413%, 56.29425%, 98.286438%)" offset="0.574219"/><stop stop-opacity="1" stop-color="rgb(88.378906%, 56.111145%, 98.106384%)" offset="0.578125"/><stop stop-opacity="1" stop-color="rgb(87.757874%, 55.926514%, 97.926331%)" offset="0.582031"/><stop stop-opacity="1" stop-color="rgb(87.138367%, 55.743408%, 97.746277%)" offset="0.585937"/><stop stop-opacity="1" stop-color="rgb(86.517334%, 55.560303%, 97.566223%)" offset="0.589844"/><stop stop-opacity="1" stop-color="rgb(85.897827%, 55.377197%, 97.386169%)" offset="0.59375"/><stop stop-opacity="1" stop-color="rgb(85.276794%, 55.194092%, 97.20459%)" offset="0.597656"/><stop stop-opacity="1" stop-color="rgb(84.657288%, 55.010986%, 97.024536%)" offset="0.601562"/><stop stop-opacity="1" stop-color="rgb(84.036255%, 54.826355%, 96.844482%)" offset="0.605469"/><stop stop-opacity="1" stop-color="rgb(83.416748%, 54.64325%, 96.664429%)" offset="0.609375"/><stop stop-opacity="1" stop-color="rgb(82.795715%, 54.460144%, 96.484375%)" offset="0.613281"/><stop stop-opacity="1" stop-color="rgb(82.176208%, 54.277039%, 96.304321%)" offset="0.617187"/><stop stop-opacity="1" stop-color="rgb(81.555176%, 54.092407%, 96.124268%)" offset="0.621094"/><stop stop-opacity="1" stop-color="rgb(80.935669%, 53.909302%, 95.944214%)" offset="0.625"/><stop stop-opacity="1" stop-color="rgb(80.314636%, 53.726196%, 95.76416%)" offset="0.628906"/><stop stop-opacity="1" stop-color="rgb(79.695129%, 53.543091%, 95.584106%)" offset="0.632812"/><stop stop-opacity="1" stop-color="rgb(79.074097%, 53.358459%, 95.404053%)" offset="0.636719"/><stop stop-opacity="1" stop-color="rgb(78.45459%, 53.175354%, 95.223999%)" offset="0.640625"/><stop stop-opacity="1" stop-color="rgb(77.833557%, 52.992249%, 95.043945%)" offset="0.644531"/><stop stop-opacity="1" stop-color="rgb(77.21405%, 52.809143%, 94.863892%)" offset="0.648438"/><stop stop-opacity="1" stop-color="rgb(76.593018%, 52.626038%, 94.683838%)" offset="0.652344"/><stop stop-opacity="1" stop-color="rgb(75.973511%, 52.442932%, 94.503784%)" offset="0.65625"/><stop stop-opacity="1" stop-color="rgb(75.352478%, 52.258301%, 94.32373%)" offset="0.660156"/><stop stop-opacity="1" stop-color="rgb(74.732971%, 52.075195%, 94.143677%)" offset="0.664062"/><stop stop-opacity="1" stop-color="rgb(74.111938%, 51.89209%, 93.963623%)" offset="0.667969"/><stop stop-opacity="1" stop-color="rgb(73.492432%, 51.708984%, 93.783569%)" offset="0.671875"/><stop stop-opacity="1" stop-color="rgb(72.871399%, 51.524353%, 93.603516%)" offset="0.675781"/><stop stop-opacity="1" stop-color="rgb(72.251892%, 51.341248%, 93.423462%)" offset="0.679688"/><stop stop-opacity="1" stop-color="rgb(71.630859%, 51.158142%, 93.243408%)" offset="0.683594"/><stop stop-opacity="1" stop-color="rgb(71.011353%, 50.975037%, 93.063354%)" offset="0.6875"/><stop stop-opacity="1" stop-color="rgb(70.39032%, 50.791931%, 92.881775%)" offset="0.691406"/><stop stop-opacity="1" stop-color="rgb(69.770813%, 50.608826%, 92.701721%)" offset="0.695312"/><stop stop-opacity="1" stop-color="rgb(69.14978%, 50.424194%, 92.521667%)" offset="0.699219"/><stop stop-opacity="1" stop-color="rgb(68.530273%, 50.241089%, 92.341614%)" offset="0.703125"/><stop stop-opacity="1" stop-color="rgb(67.909241%, 50.057983%, 92.16156%)" offset="0.707031"/><stop stop-opacity="1" stop-color="rgb(67.289734%, 49.874878%, 91.981506%)" offset="0.710938"/><stop stop-opacity="1" stop-color="rgb(66.668701%, 49.690247%, 91.801453%)" offset="0.714844"/><stop stop-opacity="1" stop-color="rgb(66.049194%, 49.507141%, 91.621399%)" offset="0.71875"/><stop stop-opacity="1" stop-color="rgb(65.428162%, 49.324036%, 91.441345%)" offset="0.722656"/><stop stop-opacity="1" stop-color="rgb(64.808655%, 49.14093%, 91.261292%)" offset="0.726562"/><stop stop-opacity="1" stop-color="rgb(64.187622%, 48.956299%, 91.081238%)" offset="0.730469"/><stop stop-opacity="1" stop-color="rgb(63.568115%, 48.773193%, 90.901184%)" offset="0.734375"/><stop stop-opacity="1" stop-color="rgb(62.947083%, 48.590088%, 90.72113%)" offset="0.738281"/><stop stop-opacity="1" stop-color="rgb(62.327576%, 48.406982%, 90.541077%)" offset="0.742188"/><stop stop-opacity="1" stop-color="rgb(61.706543%, 48.223877%, 90.361023%)" offset="0.746094"/><stop stop-opacity="1" stop-color="rgb(61.087036%, 48.040771%, 90.180969%)" offset="0.75"/><stop stop-opacity="1" stop-color="rgb(60.466003%, 47.85614%, 90.000916%)" offset="0.753906"/><stop stop-opacity="1" stop-color="rgb(59.846497%, 47.673035%, 89.820862%)" offset="0.757812"/><stop stop-opacity="1" stop-color="rgb(59.225464%, 47.489929%, 89.640808%)" offset="0.761719"/><stop stop-opacity="1" stop-color="rgb(58.605957%, 47.306824%, 89.460754%)" offset="0.765625"/><stop stop-opacity="1" stop-color="rgb(57.984924%, 47.122192%, 89.280701%)" offset="0.769531"/><stop stop-opacity="1" stop-color="rgb(57.365417%, 46.939087%, 89.100647%)" offset="0.773438"/><stop stop-opacity="1" stop-color="rgb(56.744385%, 46.755981%, 88.920593%)" offset="0.777344"/><stop stop-opacity="1" stop-color="rgb(56.124878%, 46.572876%, 88.74054%)" offset="0.78125"/><stop stop-opacity="1" stop-color="rgb(55.503845%, 46.388245%, 88.560486%)" offset="0.785156"/><stop stop-opacity="1" stop-color="rgb(54.884338%, 46.205139%, 88.380432%)" offset="0.789062"/><stop stop-opacity="1" stop-color="rgb(54.263306%, 46.022034%, 88.198853%)" offset="0.792969"/><stop stop-opacity="1" stop-color="rgb(53.643799%, 45.838928%, 88.018799%)" offset="0.796875"/><stop stop-opacity="1" stop-color="rgb(53.022766%, 45.655823%, 87.838745%)" offset="0.800781"/><stop stop-opacity="1" stop-color="rgb(52.403259%, 45.472717%, 87.658691%)" offset="0.804688"/><stop stop-opacity="1" stop-color="rgb(51.782227%, 45.288086%, 87.478638%)" offset="0.808594"/><stop stop-opacity="1" stop-color="rgb(51.16272%, 45.10498%, 87.298584%)" offset="0.8125"/><stop stop-opacity="1" stop-color="rgb(50.541687%, 44.921875%, 87.11853%)" offset="0.816406"/><stop stop-opacity="1" stop-color="rgb(49.920654%, 44.73877%, 86.938477%)" offset="0.820312"/><stop stop-opacity="1" stop-color="rgb(49.299622%, 44.554138%, 86.758423%)" offset="0.824219"/><stop stop-opacity="1" stop-color="rgb(48.680115%, 44.371033%, 86.578369%)" offset="0.828125"/><stop stop-opacity="1" stop-color="rgb(48.059082%, 44.187927%, 86.398315%)" offset="0.832031"/><stop stop-opacity="1" stop-color="rgb(47.439575%, 44.004822%, 86.218262%)" offset="0.835938"/><stop stop-opacity="1" stop-color="rgb(46.818542%, 43.82019%, 86.038208%)" offset="0.839844"/><stop stop-opacity="1" stop-color="rgb(46.199036%, 43.637085%, 85.858154%)" offset="0.84375"/><stop stop-opacity="1" stop-color="rgb(45.578003%, 43.453979%, 85.678101%)" offset="0.847656"/><stop stop-opacity="1" stop-color="rgb(44.958496%, 43.270874%, 85.498047%)" offset="0.851562"/><stop stop-opacity="1" stop-color="rgb(44.337463%, 43.087769%, 85.317993%)" offset="0.855469"/><stop stop-opacity="1" stop-color="rgb(43.717957%, 42.904663%, 85.137939%)" offset="0.859375"/><stop stop-opacity="1" stop-color="rgb(43.096924%, 42.720032%, 84.957886%)" offset="0.863281"/><stop stop-opacity="1" stop-color="rgb(42.477417%, 42.536926%, 84.777832%)" offset="0.867188"/><stop stop-opacity="1" stop-color="rgb(41.856384%, 42.353821%, 84.597778%)" offset="0.871094"/><stop stop-opacity="1" stop-color="rgb(41.236877%, 42.170715%, 84.417725%)" offset="0.875"/><stop stop-opacity="1" stop-color="rgb(40.615845%, 41.986084%, 84.237671%)" offset="0.878906"/><stop stop-opacity="1" stop-color="rgb(39.996338%, 41.802979%, 84.057617%)" offset="0.882812"/><stop stop-opacity="1" stop-color="rgb(39.375305%, 41.619873%, 83.876038%)" offset="0.886719"/><stop stop-opacity="1" stop-color="rgb(38.755798%, 41.436768%, 83.695984%)" offset="0.890625"/><stop stop-opacity="1" stop-color="rgb(38.134766%, 41.252136%, 83.51593%)" offset="0.894531"/><stop stop-opacity="1" stop-color="rgb(37.515259%, 41.069031%, 83.335876%)" offset="0.898438"/><stop stop-opacity="1" stop-color="rgb(36.894226%, 40.885925%, 83.155823%)" offset="0.902344"/><stop stop-opacity="1" stop-color="rgb(36.274719%, 40.70282%, 82.975769%)" offset="0.90625"/><stop stop-opacity="1" stop-color="rgb(35.653687%, 40.519714%, 82.795715%)" offset="0.910156"/><stop stop-opacity="1" stop-color="rgb(35.03418%, 40.336609%, 82.615662%)" offset="0.914062"/><stop stop-opacity="1" stop-color="rgb(34.413147%, 40.151978%, 82.435608%)" offset="0.917969"/><stop stop-opacity="1" stop-color="rgb(33.79364%, 39.968872%, 82.255554%)" offset="0.921875"/><stop stop-opacity="1" stop-color="rgb(33.172607%, 39.785767%, 82.0755%)" offset="0.925781"/><stop stop-opacity="1" stop-color="rgb(32.553101%, 39.602661%, 81.895447%)" offset="0.929688"/><stop stop-opacity="1" stop-color="rgb(31.932068%, 39.41803%, 81.715393%)" offset="0.933594"/><stop stop-opacity="1" stop-color="rgb(31.312561%, 39.234924%, 81.535339%)" offset="0.9375"/><stop stop-opacity="1" stop-color="rgb(30.691528%, 39.051819%, 81.355286%)" offset="0.941406"/><stop stop-opacity="1" stop-color="rgb(30.072021%, 38.868713%, 81.175232%)" offset="0.945312"/><stop stop-opacity="1" stop-color="rgb(29.450989%, 38.684082%, 80.995178%)" offset="0.949219"/><stop stop-opacity="1" stop-color="rgb(28.831482%, 38.500977%, 80.815125%)" offset="0.953125"/><stop stop-opacity="1" stop-color="rgb(28.210449%, 38.317871%, 80.635071%)" offset="0.957031"/><stop stop-opacity="1" stop-color="rgb(27.590942%, 38.134766%, 80.455017%)" offset="0.960938"/><stop stop-opacity="1" stop-color="rgb(26.96991%, 37.95166%, 80.274963%)" offset="0.964844"/><stop stop-opacity="1" stop-color="rgb(26.350403%, 37.768555%, 80.09491%)" offset="0.96875"/><stop stop-opacity="1" stop-color="rgb(25.72937%, 37.583923%, 79.914856%)" offset="0.972656"/><stop stop-opacity="1" stop-color="rgb(25.109863%, 37.400818%, 79.734802%)" offset="0.976562"/><stop stop-opacity="1" stop-color="rgb(24.488831%, 37.217712%, 79.554749%)" offset="0.980469"/><stop stop-opacity="1" stop-color="rgb(23.869324%, 37.034607%, 79.374695%)" offset="0.984375"/><stop stop-opacity="1" stop-color="rgb(23.248291%, 36.849976%, 79.193115%)" offset="0.988281"/><stop stop-opacity="1" stop-color="rgb(22.628784%, 36.66687%, 79.013062%)" offset="0.992188"/><stop stop-opacity="1" stop-color="rgb(22.293091%, 36.567688%, 78.915405%)" offset="0.996094"/><stop stop-opacity="1" stop-color="rgb(21.958923%, 36.468506%, 78.819275%)" offset="1"/></linearGradient></defs><g clip-path="url(#e12bbc8968)"><g clip-path="url(#e3378d68e4)"><path fill="url(#b1c3f8692c)" d="M 0 220.324219 L 0 549.933594 L 1024 549.933594 L 1024 220.324219 Z M 0 220.324219 " fill-rule="nonzero"/></g></g></svg>